<svg xmlns:xlink="http://www.w3.org/1999/xlink" width="18" height="18" xmlns="http://www.w3.org/2000/svg"><defs><path d="M9 7.5a1.5 1.5 0 1 1-.001 3.001A1.5 1.5 0 0 1 9 7.5zm5.05 0a1.5 1.5 0 1 1-.001 3.001A1.5 1.5 0 0 1 14.05 7.5zM4 7.5a1.5 1.5 0 1 1-.001 3.001A1.5 1.5 0 0 1 4 7.5z" id="a"></path><path d="M9 7.5a1.5 1.5 0 1 1-.001 3.001A1.5 1.5 0 0 1 9 7.5zm5.05 0a1.5 1.5 0 1 1-.001 3.001A1.5 1.5 0 0 1 14.05 7.5zM4 7.5a1.5 1.5 0 1 1-.001 3.001A1.5 1.5 0 0 1 4 7.5z" id="a"></path><path d="M9 7.5a1.5 1.5 0 1 1-.001 3.001A1.5 1.5 0 0 1 9 7.5zm5.05 0a1.5 1.5 0 1 1-.001 3.001A1.5 1.5 0 0 1 14.05 7.5zM4 7.5a1.5 1.5 0 1 1-.001 3.001A1.5 1.5 0 0 1 4 7.5z" id="a"></path></defs><g fill="none" fill-rule="evenodd"><mask id="b" fill="#FFFFFF"><use xlink:href="#a" fill="#FFFFFF"></use></mask><use fill="#333333" xlink:href="#a"></use><g mask="url(#b)" fill="#333333"><path d="M0 0h18v18H0z" fill="#333333"></path></g></g></svg>